<svg width="358" height="78" viewBox="0 0 358 78" fill="none" xmlns="http://www.w3.org/2000/svg">
<path d="M14.6403 36.2038H47.7528V48.566H14.6403V36.2038ZM15.8193 64.4604H53.2552V77.2151H0V8.53585H51.9778V21.2906H15.8193V64.4604Z" fill="url(#paint0_linear_1167_46)"/>
<path d="M78.7052 77.2151L56.4992 24.4302H72.3185L90.7908 69.8566H82.9302L102.09 24.4302H116.829L94.5245 77.2151H78.7052Z" fill="url(#paint1_linear_1167_46)"/>
<path d="M146.798 78C141.165 78 136.153 76.8226 131.765 74.4679C127.441 72.1132 124.002 68.9082 121.448 64.8528C118.958 60.7321 117.714 56.0553 117.714 50.8226C117.714 45.5245 118.958 40.8478 121.448 36.7925C124.002 32.6717 127.441 29.4667 131.765 27.1774C136.153 24.8226 141.165 23.6453 146.798 23.6453C152.366 23.6453 157.344 24.8226 161.733 27.1774C166.122 29.4667 169.561 32.639 172.05 36.6943C174.539 40.7497 175.784 45.4591 175.784 50.8226C175.784 56.0553 174.539 60.7321 172.05 64.8528C169.561 68.9082 166.122 72.1132 161.733 74.4679C157.344 76.8226 152.366 78 146.798 78ZM146.798 65.4415C149.353 65.4415 151.645 64.8528 153.676 63.6755C155.706 62.4981 157.311 60.8302 158.49 58.6717C159.67 56.4478 160.259 53.8314 160.259 50.8226C160.259 47.7484 159.67 45.1321 158.49 42.9736C157.311 40.8151 155.706 39.1472 153.676 37.9698C151.645 36.7925 149.353 36.2038 146.798 36.2038C144.243 36.2038 141.951 36.7925 139.92 37.9698C137.889 39.1472 136.252 40.8151 135.007 42.9736C133.828 45.1321 133.238 47.7484 133.238 50.8226C133.238 53.8314 133.828 56.4478 135.007 58.6717C136.252 60.8302 137.889 62.4981 139.92 63.6755C141.951 64.8528 144.243 65.4415 146.798 65.4415Z" fill="url(#paint2_linear_1167_46)"/>
<path d="M186.029 77.2151V4.4151H201.357V77.2151H186.029Z" fill="url(#paint3_linear_1167_46)"/>
<path d="M229.928 77.2151L207.722 24.4302H223.542L242.014 69.8566H234.154L253.314 24.4302H268.052L245.748 77.2151H229.928Z" fill="url(#paint4_linear_1167_46)"/>
<path d="M274.307 77.2151V24.4302H289.635V77.2151H274.307ZM281.971 17.0717C279.154 17.0717 276.861 16.2541 275.093 14.6189C273.324 12.9836 272.44 10.956 272.44 8.53585C272.44 6.11572 273.324 4.08805 275.093 2.45283C276.861 0.817611 279.154 0 281.971 0C284.787 0 287.08 0.784907 288.849 2.35472C290.617 3.85912 291.502 5.82139 291.502 8.24151C291.502 10.7925 290.617 12.9182 288.849 14.6189C287.146 16.2541 284.853 17.0717 281.971 17.0717Z" fill="url(#paint5_linear_1167_46)"/>
<path d="M329.014 78C323.381 78 318.37 76.8226 313.981 74.4679C309.658 72.1132 306.219 68.9082 303.664 64.8528C301.175 60.7321 299.93 56.0553 299.93 50.8226C299.93 45.5245 301.175 40.8478 303.664 36.7925C306.219 32.6717 309.658 29.4667 313.981 27.1774C318.37 24.8226 323.381 23.6453 329.014 23.6453C334.582 23.6453 339.56 24.8226 343.949 27.1774C348.338 29.4667 351.777 32.639 354.266 36.6943C356.755 40.7497 358 45.4591 358 50.8226C358 56.0553 356.755 60.7321 354.266 64.8528C351.777 68.9082 348.338 72.1132 343.949 74.4679C339.56 76.8226 334.582 78 329.014 78ZM329.014 65.4415C331.569 65.4415 333.862 64.8528 335.892 63.6755C337.923 62.4981 339.528 60.8302 340.707 58.6717C341.886 56.4478 342.475 53.8314 342.475 50.8226C342.475 47.7484 341.886 45.1321 340.707 42.9736C339.528 40.8151 337.923 39.1472 335.892 37.9698C333.862 36.7925 331.569 36.2038 329.014 36.2038C326.46 36.2038 324.167 36.7925 322.136 37.9698C320.106 39.1472 318.468 40.8151 317.223 42.9736C316.044 45.1321 315.455 47.7484 315.455 50.8226C315.455 53.8314 316.044 56.4478 317.223 58.6717C318.468 60.8302 320.106 62.4981 322.136 63.6755C324.167 64.8528 326.46 65.4415 329.014 65.4415Z" fill="url(#paint6_linear_1167_46)"/>
<defs>
<linearGradient id="paint0_linear_1167_46" x1="191.912" y1="5.02787" x2="191.912" y2="105.585" gradientUnits="userSpaceOnUse">
<stop stop-color="#3ABEF9"/>
<stop offset="1" stop-color="#3572EF"/>
</linearGradient>
<linearGradient id="paint1_linear_1167_46" x1="191.912" y1="5.02787" x2="191.912" y2="105.585" gradientUnits="userSpaceOnUse">
<stop stop-color="#3ABEF9"/>
<stop offset="1" stop-color="#3572EF"/>
</linearGradient>
<linearGradient id="paint2_linear_1167_46" x1="191.912" y1="5.02787" x2="191.912" y2="105.585" gradientUnits="userSpaceOnUse">
<stop stop-color="#3ABEF9"/>
<stop offset="1" stop-color="#3572EF"/>
</linearGradient>
<linearGradient id="paint3_linear_1167_46" x1="191.912" y1="5.02787" x2="191.912" y2="105.585" gradientUnits="userSpaceOnUse">
<stop stop-color="#3ABEF9"/>
<stop offset="1" stop-color="#3572EF"/>
</linearGradient>
<linearGradient id="paint4_linear_1167_46" x1="191.912" y1="5.02787" x2="191.912" y2="105.585" gradientUnits="userSpaceOnUse">
<stop stop-color="#3ABEF9"/>
<stop offset="1" stop-color="#3572EF"/>
</linearGradient>
<linearGradient id="paint5_linear_1167_46" x1="191.912" y1="5.02787" x2="191.912" y2="105.585" gradientUnits="userSpaceOnUse">
<stop stop-color="#3ABEF9"/>
<stop offset="1" stop-color="#3572EF"/>
</linearGradient>
<linearGradient id="paint6_linear_1167_46" x1="191.912" y1="5.02787" x2="191.912" y2="105.585" gradientUnits="userSpaceOnUse">
<stop stop-color="#3ABEF9"/>
<stop offset="1" stop-color="#3572EF"/>
</linearGradient>
</defs>
</svg>
